<svg width="146" height="146" viewBox="0 0 146 146" fill="none" xmlns="http://www.w3.org/2000/svg">
<g clip-path="url(#clip0_4207_1232)">
<path d="M73 146C113.317 146 146 113.317 146 73C146 32.6832 113.317 0 73 0C32.6832 0 0 32.6832 0 73C0 113.317 32.6832 146 73 146Z" fill="#1D1D1D" fill-opacity="0.04"/>
<path d="M105.561 36.2908L41.5137 49.8431C37.2669 50.7417 33.9986 54.9697 34.2137 59.2865L36.4193 103.545C36.6344 107.862 40.2515 110.633 44.4983 109.734L108.546 96.1821C112.793 95.2835 116.061 91.0556 115.846 86.7387L113.64 42.48C113.425 38.1632 109.808 35.3922 105.561 36.2908Z" fill="#1D1D1D" stroke="#1D1D1D" stroke-width="0.410899"/>
<path d="M102.503 34.5217L38.4551 48.0741C34.2083 48.9727 30.94 53.2007 31.1551 57.5175L33.3607 101.776C33.5758 106.093 37.1929 108.864 41.4397 107.965L105.487 94.4131C109.734 93.5145 113.002 89.2865 112.787 84.9697L110.582 40.711C110.367 36.3942 106.75 33.6231 102.503 34.5217Z" fill="#F2F2F2" stroke="#1D1D1D" stroke-width="0.410899"/>
<path d="M38.3934 60.3472C38.2711 57.8934 40.1289 55.4902 42.5429 54.9793L71.551 48.8413C73.9653 48.3305 76.0214 49.9056 76.1435 52.3594L77.8984 87.5759C78.0206 90.0298 76.1627 92.4328 73.7489 92.9438L44.7406 99.0818C42.3267 99.5925 40.2706 98.0176 40.1483 95.5637L38.3934 60.3472Z" fill="#25D17F"/>
<path d="M64.2884 67.5724C64.4012 70.2859 62.9084 72.9343 60.6711 74.4377C64.6515 74.5842 67.9718 76.8396 69.5335 80.3505C70.2066 81.8644 68.8951 83.6637 67.1743 84.0047L49.6446 87.4755C47.9231 87.8166 46.4843 86.5607 47.023 84.8065C48.2715 80.741 51.3505 77.2182 55.2507 75.5138C52.926 74.914 51.2391 72.895 51.1263 70.1816C50.9724 66.4809 53.7941 62.8978 57.4288 62.1781C61.0636 61.4584 64.1347 63.8746 64.2884 67.5724Z" fill="#1D1D1D"/>
<path d="M85.3271 68.1298L95.6939 65.8013" stroke="white" stroke-width="1.6436" stroke-linecap="round"/>
<path d="M86.041 80.094L96.4078 77.7656" stroke="white" stroke-width="1.6436" stroke-linecap="round"/>
<path d="M84.2031 56.1663L99.9095 52.8042" stroke="white" stroke-width="1.6436" stroke-linecap="round"/>
</g>
<defs>
<clipPath id="clip0_4207_1232">
<rect width="146" height="146" fill="white"/>
</clipPath>
</defs>
</svg>
