<svg width="146" height="146" viewBox="0 0 146 146" fill="none" xmlns="http://www.w3.org/2000/svg">
<g clip-path="url(#clip0_2989_1443)">
<path d="M73 146C113.317 146 146 113.317 146 73C146 32.6832 113.317 0 73 0C32.6832 0 0 32.6832 0 73C0 113.317 32.6832 146 73 146Z" fill="#1D1D1D" fill-opacity="0.04"/>
<mask id="mask0_2989_1443" style="mask-type:luminance" maskUnits="userSpaceOnUse" x="26" y="26" width="94" height="94">
<path d="M119.201 32.7163L32.7158 26.7993L26.7988 113.285L113.284 119.202L119.201 32.7163Z" fill="white"/>
</mask>
<g mask="url(#mask0_2989_1443)">
<path d="M110.043 68.7221L104.571 67.2119C103.896 67.011 103.315 67.4531 103.048 68.3466L96.968 89.3031C96.7198 90.1636 96.8309 91.3069 97.2644 92.2658L100.944 100.347L101.036 100.525L110.263 68.7716L110.043 68.7221Z" fill="#2E4247" stroke="black" stroke-width="0.118077" stroke-miterlimit="10" stroke-linecap="round" stroke-linejoin="round"/>
<path d="M106.679 67.8378L110.04 68.7734L113.998 67.7536L109.402 62.9995L105.278 65.677L106.679 67.8378Z" fill="white" stroke="#121212" stroke-width="0.118077" stroke-miterlimit="10" stroke-linecap="round" stroke-linejoin="round"/>
<path d="M84.5093 33.2132L74.0044 69.8012C73.3955 71.9105 71.1672 74.0469 69.0319 74.5718L31.8923 83.6979C29.7568 84.2228 28.503 82.9326 29.1119 80.8231L29.8127 78.376L32.9225 77.6939L40.6935 50.8822L38.8722 46.817L39.6168 44.235C40.2085 42.1244 42.454 39.9894 44.5892 39.4645L81.7289 30.3384C83.8815 29.8146 85.1182 31.1037 84.5093 33.2132Z" fill="white" stroke="#121212" stroke-width="0.118077" stroke-miterlimit="10" stroke-linecap="round" stroke-linejoin="round"/>
<path d="M84.1585 30.7974L114.473 62.5722L114.505 62.6089C114.57 62.6651 114.615 62.7543 114.679 62.8273C114.71 62.8811 114.741 62.9347 114.754 62.9874C114.77 63.0056 114.769 63.0228 114.785 63.041C114.784 63.0581 114.8 63.0766 114.8 63.0766C114.827 63.1815 114.873 63.2707 114.9 63.3759C114.914 63.4284 114.927 63.4811 114.924 63.5324C114.938 63.5677 114.936 63.602 114.951 63.6376C114.948 63.6718 114.963 63.7071 114.962 63.7242C114.97 63.8625 114.978 64.0007 114.966 64.1721C114.965 64.1892 114.964 64.2063 114.964 64.2063C114.954 64.3431 114.927 64.4962 114.9 64.6322C114.877 64.7166 114.87 64.8192 114.863 64.9221C114.862 64.9392 114.842 64.9723 114.841 64.9894L114.054 67.6888L108.582 66.1786C107.908 65.9777 107.327 66.4198 107.059 67.3136L100.979 88.2698C100.731 89.1305 100.842 90.2739 101.275 91.2327L104.956 99.314L104.32 101.559C104.228 101.897 104.086 102.214 103.926 102.547C103.906 102.581 103.904 102.615 103.884 102.648C103.844 102.731 103.788 102.796 103.748 102.88C103.669 103.029 103.574 103.16 103.478 103.308C103.439 103.375 103.42 103.408 103.382 103.457C103.305 103.572 103.211 103.686 103.117 103.8C103.081 103.832 103.06 103.882 103.023 103.914L102.968 103.962C102.855 104.109 102.726 104.238 102.614 104.368L102.246 104.721C102.134 104.834 102.008 104.929 101.879 105.04C101.826 105.071 101.772 105.102 101.734 105.151C101.699 105.166 101.679 105.199 101.643 105.231C101.589 105.261 101.551 105.311 101.498 105.341C101.371 105.436 101.227 105.529 101.083 105.623C101.047 105.637 101.011 105.669 100.975 105.684C100.94 105.699 100.903 105.731 100.849 105.762C100.779 105.791 100.706 105.838 100.634 105.884C100.492 105.961 100.367 106.021 100.225 106.08C100.173 106.094 100.137 106.108 100.101 106.14C100.101 106.14 100.082 106.156 100.065 106.155C99.8172 106.259 99.5715 106.328 99.3087 106.396L62.1864 115.523C61.1021 115.776 60.2539 115.598 59.7568 115.064L29.4434 83.2725C29.5722 83.4016 29.7194 83.515 29.8848 83.6124C30.3832 83.8702 31.0672 83.9341 31.8727 83.731L69.0123 74.6051C69.258 74.5358 69.5391 74.4518 69.7882 74.3311C69.8409 74.3177 69.8591 74.3017 69.9116 74.288C70.1242 74.1993 70.338 74.0934 70.5357 73.9693C70.5711 73.9545 70.6249 73.9239 70.6614 73.892C70.8948 73.7531 71.1109 73.613 71.328 73.4558C71.3463 73.4399 71.383 73.4079 71.4195 73.376C71.6369 73.2188 71.8392 73.026 72.0407 72.8506L72.1333 72.7537C72.3357 72.5609 72.5211 72.3672 72.6904 72.1551C72.7283 72.106 72.7476 72.0729 72.7844 72.041C72.9146 71.895 73.012 71.7296 73.1437 71.5665C73.2228 71.4171 73.3177 71.2859 73.3969 71.1365C73.4553 71.0372 73.5319 70.922 73.5915 70.8057C73.7521 70.4724 73.8942 70.1553 73.985 69.8346L84.4899 33.2463C84.5152 33.1277 84.5406 33.009 84.5659 32.8902C84.5924 32.7544 84.62 32.6014 84.6464 32.4654C84.6606 32.2601 84.6565 32.0703 84.635 31.8796C84.6202 31.8442 84.6225 31.81 84.6236 31.7929C84.5841 31.6182 84.5433 31.4603 84.468 31.3004C84.4692 31.2833 84.4534 31.265 84.4546 31.2479C84.3635 31.0695 84.2871 30.9267 84.1585 30.7974Z" fill="#D0E0E4" stroke="#121212" stroke-width="0.118077" stroke-linecap="round" stroke-linejoin="round"/>
<path d="M72.6331 41.7964C72.4791 41.7859 72.3042 41.8253 72.1465 41.8662L50.6188 47.1562C49.3769 47.4498 48.0878 48.6866 47.7283 49.9181L41.6319 71.1143C41.5871 71.266 41.5595 71.4191 41.549 71.5733C40.6181 71.5956 40.1146 70.9072 40.4112 69.8434L46.5073 48.6472C46.8671 47.4158 48.1562 46.1789 49.3981 45.8853L70.9256 40.5953C72.011 40.3254 72.6977 40.8542 72.6331 41.7964Z" fill="#223235" stroke="black" stroke-width="0.122517" stroke-miterlimit="10" stroke-linecap="round" stroke-linejoin="round"/>
<path d="M72.6339 41.7961C72.6245 41.9332 72.5958 42.1034 72.5497 42.2722L66.4535 63.4684C66.0951 64.6827 64.8058 65.9196 63.563 66.2303L42.0364 71.503C41.8614 71.5427 41.7049 71.5664 41.5498 71.573C41.5603 71.4188 41.5879 71.266 41.6328 71.114L47.729 49.918C48.0886 48.6864 49.3779 47.4497 50.6196 47.1559L72.1473 41.8661C72.3223 41.8264 72.4799 41.7856 72.6339 41.7961Z" fill="#25D17F" stroke="black" stroke-width="0.188141" stroke-miterlimit="10"/>
<path d="M80.4021 36.6493L82.2371 40.7669L84.1084 44.8529C84.5578 45.8302 84.6837 47.0089 84.4173 47.8853L78.3809 68.707L80.1707 69.2082C80.8293 69.3909 81.4078 68.983 81.6572 68.1052L87.7554 47.133C88.0048 46.2552 87.8948 45.0947 87.4466 44.1005L83.6743 35.8579L80.4021 36.6493Z" fill="white" stroke="#121212" stroke-width="0.118077" stroke-miterlimit="10" stroke-linecap="round" stroke-linejoin="round"/>
<path d="M80.4024 36.6489L80.3328 36.6615L71.1465 68.3152L71.2982 68.3599L74.4308 67.5934L78.3482 68.6875L84.3846 47.8658C84.651 46.9891 84.5251 45.8104 84.0757 44.8331L82.2646 40.872L80.4024 36.6489Z" fill="#2E4247" stroke="black" stroke-width="0.118077" stroke-miterlimit="10" stroke-linecap="round" stroke-linejoin="round"/>
<path d="M42.1123 45.9893L40.6934 50.8825L38.8574 46.7818L41.1514 46.1989L42.1123 45.9893Z" fill="white" stroke="#121212" stroke-width="0.118077" stroke-miterlimit="10" stroke-linecap="round" stroke-linejoin="round"/>
<path d="M80.6146 110.76L67.7849 96.8218C66.9787 96.0267 66.814 94.9142 66.9597 93.7884L67.4212 91.0666C67.5791 90.2686 67.2447 89.6262 66.7613 89.1458L57.4385 79.0264L58.7009 78.6826L67.7182 88.4886C68.5242 89.2836 68.6889 90.3962 68.5431 91.5219L68.0816 94.2437C67.9238 95.0417 68.2584 95.6841 68.7418 96.1645L81.964 110.405L80.6146 110.76Z" fill="#25D17F"/>
<path d="M75.1194 112.106L62.4366 98.2806C61.6306 97.4853 61.4659 96.3728 61.6117 95.2472L62.0732 92.5254C62.231 91.7274 61.8964 91.085 61.4132 90.6046L50.833 79.2463L52.1285 78.9219L62.3702 89.9474C63.1762 90.7424 63.3409 91.855 63.1951 92.9808L62.7336 95.7023C62.5757 96.5003 62.9104 97.1427 63.3936 97.6233L76.5201 111.754L75.1194 112.106Z" fill="#25D17F"/>
<path d="M69.8853 113.4L61.5928 104.573L62.8723 104.23L71.198 113.077L69.8853 113.4Z" fill="#25D17F"/>
<path d="M48.1621 67.4824L51.6171 55.4668" stroke="black" stroke-width="0.236154" stroke-miterlimit="10" stroke-linecap="round" stroke-linejoin="round"/>
<path d="M52.2715 53.1887L53.3585 49.374" stroke="black" stroke-width="0.236154" stroke-miterlimit="10" stroke-linecap="round" stroke-linejoin="round"/>
<path d="M51.2041 66.7787L54.6577 54.7803" stroke="black" stroke-width="0.236154" stroke-miterlimit="10" stroke-linecap="round" stroke-linejoin="round"/>
<path d="M55.2959 52.5011L56.4 48.6875" stroke="black" stroke-width="0.236154" stroke-miterlimit="10" stroke-linecap="round" stroke-linejoin="round"/>
<path d="M54.1963 66.0541L57.6512 54.0386" stroke="black" stroke-width="0.236154" stroke-miterlimit="10" stroke-linecap="round" stroke-linejoin="round"/>
<path d="M58.2891 51.759L59.3761 47.9443" stroke="black" stroke-width="0.236154" stroke-miterlimit="10" stroke-linecap="round" stroke-linejoin="round"/>
<path d="M57.3066 65.3549L59.0427 59.3477" stroke="black" stroke-width="0.236154" stroke-miterlimit="10" stroke-linecap="round" stroke-linejoin="round"/>
<path d="M59.8164 56.5956L62.5039 47.2461" stroke="black" stroke-width="0.236154" stroke-miterlimit="10" stroke-linecap="round" stroke-linejoin="round"/>
<path d="M60.1543 64.7411L61.8892 58.751" stroke="black" stroke-width="0.236154" stroke-miterlimit="10" stroke-linecap="round" stroke-linejoin="round"/>
<path d="M62.6621 55.9991L65.3494 46.6499" stroke="black" stroke-width="0.236154" stroke-miterlimit="10" stroke-linecap="round" stroke-linejoin="round"/>
<path d="M99.3599 77.7308L102.187 67.8404C102.337 67.4205 102.007 66.9505 101.735 67.1556L97.2812 69.3803C97.1247 69.404 97.009 69.5854 96.9755 69.824C96.942 70.0626 96.9084 70.3012 96.9741 70.5982L98.8071 77.7618C98.8899 78.06 99.2107 78.1508 99.3599 77.7308Z" fill="#25D17F"/>
</g>
</g>
<defs>
<clipPath id="clip0_2989_1443">
<rect width="146" height="146" fill="white"/>
</clipPath>
</defs>
</svg>
