<svg width="146" height="146" viewBox="0 0 146 146" fill="none" xmlns="http://www.w3.org/2000/svg">
<g clip-path="url(#clip0_2989_1539)">
<path d="M73 146C113.317 146 146 113.317 146 73C146 32.6832 113.317 0 73 0C32.6832 0 0 32.6832 0 73C0 113.317 32.6832 146 73 146Z" fill="#1D1D1D" fill-opacity="0.04"/>
<path d="M30.2354 70.2705L45.0669 76.9119L49.4346 82.6258L34.6003 75.991L30.2354 70.2705Z" fill="#90A4A9" stroke="black" stroke-width="0.335641" stroke-miterlimit="9.9994" stroke-linecap="round" stroke-linejoin="round"/>
<path d="M53.8684 82.8801C54.0942 81.5052 54.3874 80.121 54.7161 78.7447C54.7836 78.4686 54.8477 78.1833 54.9182 77.9006C55.2848 76.439 55.7059 74.9783 56.1759 73.5313C56.2719 73.2444 56.3679 72.9576 56.4669 72.664C56.8402 71.5585 57.2394 70.4649 57.6746 69.379C57.7524 69.186 57.8238 68.99 57.9016 68.7971C58.3695 67.6553 58.8664 66.5185 59.3933 65.4028C59.5309 65.1108 59.6748 64.8215 59.822 64.5259C60.2148 63.7117 60.6275 62.9064 61.0502 62.1132C61.2279 61.784 61.4084 61.4482 61.5858 61.1191C62.0633 60.2561 62.567 59.4047 63.0807 58.5659C63.1943 58.3809 63.3041 58.1863 63.4177 58.0015C64.0669 56.9635 64.7467 55.963 65.4432 54.9775C65.612 54.7386 65.7845 54.5091 65.9572 54.2799C66.6158 53.3797 67.2979 52.4975 67.9973 51.6468C68.1522 51.4568 68.3037 51.2572 68.4624 51.0765C69.4457 49.9047 70.4736 48.7919 71.5298 47.7386C71.7415 47.5267 71.9564 47.3081 72.1747 47.0992C72.685 46.6037 73.209 46.1303 73.7369 45.6663C73.9837 45.4464 74.224 45.2235 74.4742 45.013C75.2533 44.3544 76.043 43.7243 76.8447 43.1387C84.3728 37.6541 91.5897 36.4571 97.1485 38.9414L82.3142 32.3066C76.7489 29.8194 69.5383 31.0193 62.0101 36.5039C61.2087 37.0897 60.4188 37.7198 59.6399 38.3782C59.3895 38.5887 59.1463 38.8182 58.9024 39.0315C58.3748 39.4955 57.8571 39.9719 57.3404 40.4644C57.2268 40.5787 57.1059 40.674 56.9859 40.7856C56.8876 40.8832 56.7936 41.0062 56.6953 41.1038C55.6391 42.1571 54.6114 43.2699 53.6279 44.4417C53.5821 44.4922 53.5362 44.5424 53.4904 44.5925C53.3747 44.7296 53.2757 44.8818 53.1628 45.0121C52.4633 45.8627 51.7813 46.7449 51.1227 47.6451C51.017 47.7943 50.8948 47.9284 50.7894 48.0776C50.7259 48.1673 50.6691 48.2596 50.6087 48.3427C49.9122 49.3282 49.2294 50.3354 48.5804 51.3731C48.5563 51.4096 48.5353 51.4395 48.5113 51.4758C48.4217 51.6245 48.3388 51.776 48.2492 51.9245C47.7355 52.7635 47.2318 53.6149 46.7516 54.4843C46.6715 54.6294 46.5782 54.7685 46.4981 54.9134C46.4007 55.0977 46.3097 55.2848 46.2123 55.4691C45.7866 56.2687 45.3769 57.0676 44.9838 57.8817C44.8841 58.0886 44.7742 58.283 44.6745 58.4899C44.6339 58.5816 44.596 58.6667 44.5552 58.7586C44.0255 59.8808 43.5313 61.0109 43.0607 62.1595C43.0374 62.2118 43.0169 62.2579 42.9936 62.3101C42.9391 62.4508 42.891 62.5941 42.8365 62.7349C42.4081 63.8235 42.0056 64.9237 41.6258 66.0262C41.5633 66.2026 41.4912 66.3824 41.4287 66.5587C41.3952 66.6693 41.3712 66.7763 41.3377 66.8872C40.865 68.3406 40.4466 69.7949 40.0803 71.2565C40.0504 71.3765 40.0075 71.491 39.9776 71.611C39.9368 71.7734 39.9188 71.9379 39.8779 72.1003C39.5558 73.4795 39.2563 74.8611 39.0302 76.2358C38.9305 76.7251 38.8557 77.1941 38.8034 77.6652C38.8005 77.6718 38.8041 77.6812 38.8014 77.6878L33.5 88.6889L48.3345 95.3237L53.6357 84.3226C53.6945 83.8542 53.7657 83.3758 53.8684 82.8801Z" fill="#2E4247" stroke="black" stroke-width="0.284487" stroke-miterlimit="10" stroke-linecap="round" stroke-linejoin="round"/>
<path d="M87.1642 26.7587C87.2734 26.8308 87.3827 26.9029 87.492 26.975C88.0776 27.3528 88.642 27.7602 89.1831 28.2203C89.2166 28.2509 89.2435 28.2785 89.2771 28.3091C89.7949 28.7509 90.2924 29.2387 90.7754 29.759C90.8598 29.8516 90.9538 29.9404 91.0354 30.0394C91.5058 30.57 91.9589 31.1401 92.3844 31.7371C92.487 31.8767 92.584 32.0298 92.6839 32.176C93.0662 32.7461 93.4399 33.3358 93.7832 33.9588C93.8355 34.0528 93.8909 34.1402 93.9367 34.2312C94.323 34.9518 94.6859 35.7252 95.0144 36.5222C95.1011 36.7335 95.1791 36.9643 95.2631 37.182C95.5099 37.8095 95.7389 38.4604 95.9458 39.1251C96.0143 39.3597 96.0923 39.5905 96.158 39.8314C96.4101 40.7124 96.6441 41.6167 96.8417 42.5675L111.676 49.2023C111.479 48.2515 111.245 47.3472 110.992 46.4662C110.924 46.2317 110.849 45.9944 110.78 45.7599C110.701 45.5131 110.632 45.2466 110.55 45.0064C110.412 44.5922 110.244 44.2114 110.097 43.8168C110.014 43.5991 109.933 43.3749 109.846 43.1636C109.532 42.4042 109.197 41.6747 108.831 40.9789C108.81 40.938 108.786 40.9038 108.768 40.8726C108.716 40.7786 108.66 40.6912 108.608 40.5972C108.265 39.974 107.894 39.3779 107.509 38.8144C107.409 38.668 107.309 38.5218 107.209 38.3755C107.131 38.2699 107.064 38.154 106.986 38.0486C106.627 37.5673 106.243 37.1065 105.854 36.6748C105.769 36.5825 105.678 36.4871 105.594 36.3947C105.404 36.1851 105.208 35.9725 105.013 35.7758C104.717 35.4877 104.409 35.2096 104.095 34.9445C104.062 34.914 104.035 34.8863 104.001 34.8558C103.631 34.5421 103.245 34.2451 102.853 33.9613C102.674 33.8347 102.486 33.7277 102.31 33.6104C102.201 33.5384 102.092 33.4663 101.983 33.3942C101.49 33.0894 100.989 32.804 100.471 32.5581C100.342 32.4933 100.212 32.4351 100.08 32.377L85.2461 25.7422C85.9175 26.0324 86.5496 26.3759 87.1642 26.7587Z" fill="#CCE0E5" stroke="black" stroke-width="0.284487" stroke-miterlimit="10" stroke-linecap="round" stroke-linejoin="round"/>
<path d="M96.8627 42.5669L111.694 49.2083L106.894 52.7027L92.0625 46.0613L96.8627 42.5669Z" fill="#90A4A9" stroke="black" stroke-width="0.335641" stroke-miterlimit="9.9994" stroke-linecap="round" stroke-linejoin="round"/>
<path d="M96.9437 42.604C96.938 42.6172 96.9257 42.6273 96.9132 42.6376L92.113 46.132C92.0881 46.1523 92.0562 46.1539 92.0299 46.1422C92.0037 46.1306 91.9834 46.1057 91.9724 46.0774C90.3922 38.9807 86.6875 34.0005 81.5257 32.0535C75.8805 29.9232 68.9738 31.5171 62.0636 36.5462C54.8494 41.8012 48.4391 50.1755 44.0208 60.1247C41.6601 65.4402 40.0113 70.8676 39.1302 76.2438C39.0285 76.7557 38.9537 77.2247 38.9042 77.6894L33.5914 88.7165C33.5797 88.7428 33.5551 88.7631 33.5229 88.7646C33.491 88.766 33.4648 88.7544 33.4415 88.7361L28.2165 82.673L27.1553 74.0018C28.6664 72.0835 28.6664 72.0835 30.1693 70.2008C30.1875 70.1775 30.2158 70.1665 30.2384 70.1686C30.2705 70.1672 30.2938 70.1855 30.3077 70.2074L34.5493 75.7631C34.6889 75.0249 34.8381 74.2828 35.003 73.5401C36.1288 68.4608 37.8188 63.3654 40.019 58.4106C45.2349 46.6653 52.8025 36.7807 61.3156 30.58C69.5585 24.5812 77.8013 22.7176 84.5346 25.3311C90.7675 27.746 95.1762 33.8625 96.9474 42.5429C96.9583 42.5714 96.9497 42.591 96.9437 42.604Z" fill="white"/>
<path d="M27.2405 74.0012C28.732 72.1448 28.732 72.1448 30.2321 70.2687L34.5969 75.9891C34.7495 75.1859 34.9117 74.379 35.0898 73.5715C36.2241 68.4726 37.9229 63.3576 40.0999 58.455C45.0918 47.2146 52.5733 37.0642 61.3724 30.6609C77.8519 18.6605 93.0945 24.1112 96.8572 42.5663L92.057 46.0607C88.665 30.7992 75.8679 26.3795 62.0077 36.4751C54.5386 41.9152 48.1749 50.5377 43.9313 60.0936C41.6115 65.3174 39.9275 70.8235 39.0357 76.2419C38.9333 76.7378 38.8619 77.2162 38.8069 77.6939L33.5055 88.6948L28.2808 82.6317L27.2405 74.0012ZM27.0701 73.9255C27.0555 73.9584 27.0505 73.9876 27.0585 74.0225L28.1017 82.6463C28.1097 82.6812 28.1177 82.7163 28.1446 82.7439L33.3666 88.8136C33.4074 88.8631 33.4692 88.8828 33.5267 88.8768C33.5842 88.8711 33.6403 88.8333 33.6666 88.7742L38.9773 77.7696L38.9801 77.763C38.989 77.7434 38.9947 77.7302 38.9969 77.7076C39.0432 77.2495 39.1181 76.7807 39.22 76.2688C40.1008 70.8926 41.747 65.4717 44.1047 60.1627C48.5171 50.2265 54.915 41.8625 62.1236 36.6207C69.0088 31.6117 75.893 30.0158 81.5026 32.138C86.6285 34.0771 90.3196 39.0354 91.8916 46.0972C91.9042 46.1577 91.9448 46.2072 92.0068 46.2268C92.0657 46.253 92.1261 46.2407 92.1822 46.2028L96.9827 42.7084C97.0073 42.6879 97.0256 42.6646 97.0402 42.6318C97.0545 42.5991 97.0561 42.5606 97.0509 42.5191C95.2717 33.8036 90.8397 27.6688 84.5834 25.2359C77.824 22.6107 69.5463 24.4824 61.2784 30.5015C52.7435 36.716 45.1702 46.6137 39.9514 58.3656C37.7452 63.3337 36.0553 68.4291 34.9267 73.5147C34.7748 74.1926 34.6359 74.8766 34.5086 75.534L30.3834 70.1398C30.3492 70.093 30.2967 70.0697 30.2422 70.0691C30.1877 70.0684 30.1309 70.0903 30.101 70.1398C28.6008 72.0159 28.6008 72.0159 27.1093 73.8724C27.0884 73.9022 27.0758 73.9125 27.0701 73.9255Z" fill="black"/>
<path d="M76.6509 41.9193C76.7725 41.9811 76.9007 42.0459 77.0193 42.1143C77.1446 42.1855 77.2671 42.2635 77.3893 42.3413C77.5052 42.4164 77.6238 42.4848 77.7434 42.5692C77.8627 42.6536 77.9859 42.7474 78.1052 42.832C78.2181 42.9134 78.3244 42.9919 78.4316 43.0866C78.5452 43.1842 78.6589 43.2816 78.7761 43.3886C78.8765 43.4803 78.9837 43.575 79.0841 43.6667C79.1883 43.768 79.2896 43.8757 79.3907 43.9833C79.4986 44.094 79.6065 44.2046 79.7112 44.3219C79.8095 44.4362 79.9078 44.5505 79.9968 44.6684C80.0988 44.7923 80.1941 44.913 80.2961 45.0368C80.3814 45.1452 80.4608 45.2668 80.5432 45.3817C80.6531 45.5405 80.7594 45.6897 80.8667 45.8551C80.946 45.9767 81.0225 46.1047 81.0989 46.2329C81.1995 46.3953 81.2971 46.5641 81.3918 46.7396C81.4552 46.8618 81.5186 46.9841 81.582 47.1066C81.7087 47.3512 81.8298 47.6089 81.9477 47.8731C81.9979 47.9897 82.0513 48.0996 82.1015 48.216C82.253 48.5817 82.4017 48.9535 82.5352 49.3425C82.5388 49.3518 82.5461 49.3707 82.5498 49.3803C82.5906 49.5003 82.6248 49.6176 82.659 49.7348C82.7304 49.9627 82.8084 50.1936 82.8739 50.4345C82.9164 50.5866 82.9492 50.7425 82.9914 50.8946C83.0432 51.1138 83.1073 51.3228 83.1561 51.5484C83.1926 51.7138 83.2195 51.8826 83.256 52.048C83.2985 52.2707 83.35 52.4899 83.3829 52.7164C83.4137 52.8948 83.4376 53.0702 83.4588 53.2523C83.4917 53.4786 83.5245 53.7051 83.5544 53.9383C83.6099 54.3788 83.653 54.8293 83.6904 55.2931C83.7547 56.2086 83.7716 57.1418 83.7574 58.0929C83.7517 58.3885 83.7335 58.6944 83.7155 59.0001C83.6908 59.6562 83.6502 60.313 83.5843 60.9743C83.5471 61.358 83.5008 61.7454 83.4543 62.1327C83.3895 62.6141 83.3249 63.0954 83.2442 63.5775C83.1796 63.9881 83.1055 64.4026 83.0247 64.8139C82.928 65.2968 82.8313 65.7795 82.7186 66.2629C82.6066 66.7625 82.4852 67.2658 82.3572 67.7661C82.3054 67.9707 82.2502 68.1657 82.1987 68.3704C81.9863 69.1314 81.7607 69.8867 81.5127 70.6395C81.197 71.5979 80.8484 72.5416 80.4709 73.4804C80.3442 73.8009 80.198 74.1125 80.0648 74.43C79.8239 74.9901 79.5896 75.5529 79.3291 76.1043C79.1566 76.475 78.9712 76.8397 78.7855 77.2047C78.5535 77.6744 78.3183 78.1508 78.0666 78.6116C77.8716 78.9802 77.6569 79.34 77.4553 79.7054C77.2027 80.1505 76.9406 80.5992 76.6751 81.0384C76.4661 81.3849 76.2441 81.7257 76.0251 82.0601C75.7254 82.5232 75.4218 82.977 75.1147 83.4214C74.8978 83.733 74.6744 84.0419 74.4443 84.3478C74.0665 84.8627 73.6787 85.3652 73.2833 85.8488C73.0221 86.1721 72.7579 86.502 72.4929 86.8159C72.3437 86.9929 72.1908 87.1606 72.035 87.3346C71.6164 87.8 71.1944 88.2558 70.7648 88.6929C70.6608 88.8035 70.5565 88.9144 70.4459 89.0221C70.0528 89.4126 69.6488 89.7747 69.2421 90.1431C69.0448 90.3224 68.8481 90.5174 68.6474 90.6871C68.0387 91.2096 67.4191 91.7034 66.7916 92.1622C66.5151 92.3611 66.2413 92.5534 65.961 92.7428C60.8309 96.185 55.991 96.8527 52.2217 95.163L59.4815 98.4105C63.2508 100.1 68.0937 99.4259 73.2078 95.9847C73.4882 95.7951 73.7617 95.6028 74.0384 95.4041C74.666 94.9451 75.2856 94.4512 75.894 93.929C76.095 93.7593 76.2916 93.564 76.4887 93.3847C76.8558 93.0535 77.2262 92.7314 77.5858 92.3812C77.6259 92.344 77.6592 92.3039 77.6994 92.2667C77.81 92.159 77.9076 92.0454 78.0183 91.9375C78.4476 91.5004 78.8765 91.0476 79.2885 90.5792C79.4441 90.4052 79.5905 90.2345 79.7463 90.0605C79.8743 89.9133 80.0062 89.7758 80.1278 89.6257C80.2644 89.4589 80.394 89.2732 80.5338 89.0999C80.9319 88.6098 81.3199 88.1073 81.6977 87.5922C81.8157 87.4327 81.9436 87.2856 82.0616 87.1261C82.1672 86.9769 82.2596 86.8218 82.365 86.6724C82.6816 86.2246 82.9786 85.7679 83.2784 85.3048C83.4196 85.0928 83.5674 84.8836 83.702 84.669C83.78 84.5465 83.8476 84.4119 83.9283 84.283C84.1941 83.8439 84.4532 83.4017 84.7085 82.9501C84.854 82.693 85.0099 82.4484 85.1554 82.1913C85.2115 82.0827 85.264 81.9648 85.3265 81.8592C85.5717 81.3954 85.8133 80.922 86.0455 80.4521C86.1838 80.1763 86.338 79.8993 86.4696 79.6206C86.5075 79.5353 86.5483 79.4436 86.5862 79.3585C86.8467 78.8071 87.0837 78.2377 87.3246 77.6776C87.4376 77.4059 87.5669 77.1495 87.6732 76.8751C87.6935 76.8292 87.7104 76.7738 87.7307 76.728C88.1082 75.7892 88.4568 74.8455 88.7725 73.8871C88.7842 73.8609 88.7929 73.8413 88.7981 73.8121C89.0374 73.0789 89.2512 72.3498 89.4615 71.6113C89.5197 71.4097 89.5683 71.2117 89.6171 71.0136C89.6942 70.734 89.7743 70.4477 89.8447 70.1652C89.8956 69.9447 89.9342 69.7341 89.985 69.5135C90.0977 69.0299 90.1945 68.5472 90.2912 68.0644C90.3719 67.6529 90.4431 67.2452 90.5079 66.8344C90.5884 66.3524 90.6532 65.871 90.7178 65.3897C90.7454 65.1508 90.7926 64.9209 90.8202 64.682C90.8325 64.5306 90.8355 64.3827 90.8508 64.2246C90.9167 63.5635 90.9507 62.9038 90.9819 62.2507C90.9906 61.9484 91.0152 61.6455 91.0173 61.3405C91.0287 60.396 91.0182 59.4655 90.9473 58.5473C90.9165 58.0863 90.867 57.6327 90.8115 57.1922C90.8106 57.1763 90.8063 57.1507 90.8056 57.1347C90.7764 56.9178 90.7413 56.7139 90.7093 56.5035C90.6851 56.3279 90.6639 56.1458 90.6304 55.9741C90.5912 55.7448 90.5421 55.5189 90.4999 55.2963C90.47 55.1339 90.4431 54.9648 90.4036 54.8063C90.3512 54.5711 90.29 54.3555 90.2346 54.1269C90.1958 53.9841 90.163 53.8283 90.1215 53.6923C90.0523 53.4419 89.9736 53.195 89.892 52.9546C89.8584 52.8535 89.8308 52.7392 89.7973 52.638C89.7973 52.638 89.7973 52.6379 89.7936 52.6286C89.79 52.619 89.7827 52.6001 89.779 52.5907C89.6456 52.2018 89.5035 51.8327 89.352 51.4672C89.3016 51.3506 89.2484 51.2409 89.1982 51.1243C89.0801 50.8599 88.9562 50.6088 88.8323 50.3576C88.7974 50.2951 88.7748 50.2223 88.7399 50.1596C88.7114 50.1001 88.6706 50.0506 88.6423 49.9908C88.5476 49.8154 88.447 49.6529 88.3494 49.4841C88.273 49.3559 88.1963 49.2277 88.1169 49.1061C88.0099 48.941 87.9036 48.7918 87.7937 48.633C87.7353 48.5522 87.6798 48.4649 87.6217 48.3841C87.5977 48.3499 87.5706 48.3223 87.5466 48.2881C87.4542 48.1605 87.3493 48.0433 87.2473 47.9196C87.1517 47.7987 87.0534 47.6844 86.9551 47.5702C86.8504 47.4529 86.7491 47.3452 86.6412 47.2346C86.5668 47.1545 86.489 47.0651 86.4117 46.9914C86.3848 46.9638 86.3549 46.9428 86.3346 46.9179C86.2369 46.8196 86.127 46.7316 86.0264 46.6399C85.9157 46.5358 85.8021 46.4382 85.6819 46.3378C85.572 46.2498 85.4657 46.1711 85.3557 46.083C85.266 46.0198 85.1889 45.9461 85.0993 45.8829C85.0628 45.859 85.0331 45.8378 84.9966 45.8138C84.8837 45.7322 84.7651 45.6637 84.6426 45.5859C84.5203 45.5081 84.398 45.4301 84.2728 45.3589C84.1539 45.2905 84.0257 45.2257 83.9041 45.1639C83.8154 45.1164 83.7294 45.0626 83.6377 45.022C83.559 44.9871 83.4832 44.9456 83.4045 44.9107L76.1447 41.6631C76.3188 41.7482 76.4835 41.8369 76.6509 41.9193Z" fill="#90A4A9" stroke="black" stroke-width="0.335641" stroke-miterlimit="9.9994" stroke-linecap="round" stroke-linejoin="round"/>
<path d="M79.8189 75.2588C76.6348 82.429 72.0246 88.4638 66.8325 92.2395C66.556 92.4382 66.2793 92.6371 65.9989 92.8265C60.8971 96.2577 55.8907 97.0712 51.8882 95.129C47.6686 93.0747 45.0787 88.2521 44.5923 81.5548C44.145 75.424 45.5482 68.3414 48.5402 61.6037C51.7244 54.4335 56.3316 48.4051 61.5238 44.6296C61.8005 44.4307 62.077 44.2318 62.3573 44.0424C67.4591 40.6114 72.4751 39.7943 76.4746 41.7431C80.6876 43.7944 83.2805 48.6104 83.7669 55.3077C84.2201 61.4255 82.814 68.5145 79.8189 75.2588Z" fill="white"/>
<path d="M48.6327 61.625C51.686 54.7496 56.2603 48.5656 61.5857 44.6845C61.8622 44.4855 62.1389 44.2866 62.4163 44.1039C73.1833 36.8561 82.7105 41.8717 83.6846 55.2984C84.1452 61.6472 82.6204 68.7382 79.7446 75.2138C76.6914 82.0892 72.1141 88.2798 66.7917 92.1545C66.515 92.3532 66.2412 92.5456 65.9611 92.7351C55.1938 99.9827 45.6726 94.9541 44.6987 81.5273C44.2256 75.1889 45.754 68.1072 48.6327 61.625ZM48.4621 61.5493C45.4643 68.3002 44.0588 75.4052 44.5034 81.5426C44.9948 88.2814 47.6053 93.1286 51.8511 95.1945C55.8835 97.158 60.9284 96.3461 66.0551 92.8946C66.3352 92.705 66.6186 92.509 66.8887 92.3074C72.0865 88.5187 76.709 82.4736 79.8991 75.2902C82.8998 68.5329 84.3053 61.4279 83.8541 55.2875C83.3664 48.558 80.7559 43.7108 76.5103 41.6449C72.478 39.6817 67.43 40.5002 62.3034 43.9517C62.023 44.1411 61.7399 44.337 61.4632 44.536C56.272 48.3274 51.6522 54.3659 48.4621 61.5493Z" fill="black"/>
<path d="M61.3005 48.5866C61.5307 48.4219 61.7577 48.2638 61.9849 48.1057C70.8366 42.1499 78.6757 46.2666 79.4764 57.3094C80.2609 68.0706 74.0851 81.4296 65.5752 87.6236C65.345 87.7881 65.1178 87.9462 64.8908 88.1043C56.0391 94.0604 48.2057 89.9304 47.405 78.8876C46.6271 68.1294 52.7999 54.777 61.3005 48.5866Z" fill="#25D17F"/>
<path d="M62.2289 52.646L62.5444 55.5402C63.6627 54.9304 64.564 54.703 65.2915 54.8141C66.6342 55.0418 67.2413 56.3076 67.4726 58.4194L63.7598 61.1254C63.6533 60.1287 63.498 59.4005 62.9388 59.1758C62.5622 59.0164 62.0067 59.1542 61.208 59.7334C60.4436 60.2884 60.0019 60.877 59.6876 61.5141C59.3025 62.2925 59.1827 63.181 59.2879 64.1458C59.4857 65.9443 59.8418 66.2906 61.571 65.7011L64.4739 64.7302C67.4495 63.737 68.3271 64.6054 68.7318 68.3239C68.98 70.5919 68.8197 72.3492 67.7374 74.309C67.1457 75.4115 66.1987 76.6073 64.9664 77.7393L65.3439 81.2182L62.0628 83.6062L61.6869 80.1592C60.3699 80.9162 59.3221 81.1728 58.5189 81.0202C57.2788 80.7911 56.763 79.6911 56.5089 77.3654L60.2216 74.6591C60.3494 75.8381 60.5652 76.483 61.1542 76.6584C61.5249 76.7602 62.1176 76.5918 62.9505 75.9887C63.808 75.3652 64.3167 74.7673 64.642 74.0877C65.083 73.2007 65.1621 72.3334 65.0344 71.1547C64.7816 68.7904 64.3156 68.497 62.4153 69.1362L59.4834 70.1019C56.9905 70.9095 55.9664 70.3528 55.5918 66.9378C55.3758 64.9508 55.8332 62.8783 57.0085 60.8501C57.606 59.805 58.3636 58.8232 59.2742 57.9565L58.9544 55.0367L62.2289 52.646Z" fill="black"/>
<path d="M83.9839 84.1656C83.946 84.2509 83.8418 84.2911 83.7567 84.2532L81.8334 83.4069C80.8109 82.9529 79.6053 83.3355 79.0192 84.2838C69.7909 99.4101 57.977 97.742 57.8604 97.7215C57.7666 97.7035 57.7016 97.6197 57.7199 97.5258C57.7345 97.4224 57.8218 97.367 57.9156 97.3852C57.9448 97.3903 60.8605 97.8219 64.87 96.4089C68.5663 95.0999 73.9713 91.9054 78.7352 84.1104C79.4041 83.0108 80.8 82.5712 81.9796 83.0952L83.9029 83.9414C83.9816 83.9765 84.0215 84.0805 83.9839 84.1656Z" fill="#2E4247"/>
<path d="M85.4292 71.1278C85.3943 71.2066 85.3063 71.246 85.2283 71.2271C85.1372 71.2022 85.0848 71.1085 85.1096 71.0174C90.8696 50.1134 81.3661 44.2139 81.2641 44.1607C81.1847 44.1099 81.1642 44.0145 81.205 43.9226C81.2559 43.8432 81.3542 43.8163 81.4366 43.8608C81.5356 43.9203 91.272 49.9312 85.4379 71.1082C85.4379 71.1082 85.4352 71.1148 85.4292 71.1278Z" fill="#2E4247"/>
<path d="M84.1757 77.3085C84.4025 76.7981 84.1725 76.2007 83.662 75.9739C83.1517 75.7474 82.5542 75.9774 82.3274 76.4877C82.1009 76.9982 82.3309 77.5957 82.8412 77.8222C83.3517 78.049 83.9492 77.819 84.1757 77.3085Z" fill="#2E4247"/>
<path d="M60.2277 112.732C59.8454 112.444 59.4747 112.13 59.119 111.8C58.9247 111.619 58.7237 111.436 58.535 111.242C58.1308 110.827 57.7439 110.373 57.3725 109.902C57.2363 109.732 57.0942 109.575 56.961 109.398C56.8889 109.295 56.8165 109.192 56.7511 109.093C56.4452 108.651 56.1545 108.192 55.8755 107.707C55.7989 107.579 55.7225 107.451 55.6488 107.316C55.3159 106.705 55.0048 106.081 54.7141 105.41C54.7032 105.382 54.6989 105.356 54.6849 105.335C54.4256 104.717 54.1872 104.07 53.967 103.399C53.6728 102.507 53.4088 101.582 53.1907 100.606L38.3564 93.9717C38.5716 94.9538 38.8449 95.8756 39.1328 96.7646C39.1553 96.8374 39.172 96.9234 39.2012 96.9991C39.4017 97.5902 39.6166 98.1486 39.8504 98.6998C39.8614 98.7281 39.8657 98.7536 39.8796 98.7755C40.1244 99.355 40.3904 99.9048 40.6717 100.438C40.7205 100.522 40.7723 100.6 40.8145 100.682C40.8879 100.816 40.9646 100.944 41.041 101.073C41.32 101.557 41.6106 102.016 41.9168 102.458C41.9889 102.561 42.0514 102.667 42.1264 102.763C42.1607 102.809 42.1921 102.863 42.2327 102.912C42.332 103.042 42.4426 103.147 42.5446 103.27C42.9162 103.741 43.2963 104.193 43.7005 104.608C43.7778 104.681 43.8367 104.778 43.914 104.851C44.0283 104.965 44.1638 105.049 44.2811 105.156C44.6431 105.489 45.0072 105.8 45.3895 106.087C45.5127 106.181 45.6177 106.298 45.7436 106.386C45.8332 106.449 45.938 106.496 46.0306 106.553C46.461 106.838 46.8965 107.094 47.35 107.327C47.4981 107.4 47.6313 107.507 47.7725 107.577C47.8811 107.633 47.9924 107.683 48.0974 107.729L62.9317 114.364C62.6695 114.248 62.4314 114.095 62.1779 113.959C61.7272 113.719 61.2887 113.47 60.8585 113.184C60.65 113.053 60.4403 112.889 60.2277 112.732Z" fill="#2E4247" stroke="black" stroke-width="0.284487" stroke-miterlimit="10" stroke-linecap="round" stroke-linejoin="round"/>
<path d="M95.3335 66.4571C95.1546 67.2484 94.9532 68.038 94.7517 68.8273C94.6258 69.305 94.4999 69.7827 94.3712 70.267C94.22 70.8197 94.0555 71.3665 93.8913 71.9134C93.7494 72.392 93.6038 72.8608 93.4555 73.3364C93.3289 73.7274 93.1957 74.1154 93.0627 74.5037C92.5563 75.9972 92.0209 77.4858 91.427 78.964C91.4184 78.9839 91.4124 78.9969 91.4038 79.0165C90.8675 80.3478 90.2759 81.6623 89.6741 82.9644C89.5133 83.3089 89.3525 83.6534 89.1853 83.9949C88.6423 85.1113 88.0864 86.2218 87.4939 87.3084C87.4109 87.4598 87.3317 87.6209 87.2487 87.7724C86.5821 88.9908 85.879 90.185 85.1527 91.3612C84.9643 91.6621 84.7786 91.9562 84.5835 92.2541C83.9309 93.2825 83.2574 94.286 82.561 95.2715C82.4161 95.4739 82.2749 95.6858 82.13 95.8884C81.2362 97.1237 80.3148 98.3152 79.3627 99.4695C79.0768 99.8133 78.7907 100.157 78.501 100.491C78.1748 100.872 77.8422 101.25 77.5096 101.628C77.1521 102.027 76.794 102.409 76.4265 102.795C76.0866 103.154 75.7466 103.513 75.3965 103.86C75.0862 104.17 74.7726 104.47 74.4559 104.776C73.8409 105.366 73.2183 105.937 72.5857 106.496C72.3143 106.736 72.0428 106.977 71.7677 107.208C70.8743 107.964 69.9666 108.683 69.0443 109.365C60.1956 115.808 51.7073 117.218 45.1523 114.291L59.9866 120.926C66.5386 123.859 75.0299 122.443 83.8786 115.999C84.8046 115.328 85.7089 114.599 86.602 113.843C86.8771 113.611 87.1422 113.368 87.4136 113.128C88.0462 112.569 88.6686 111.998 89.2838 111.408C89.4373 111.257 89.6077 111.121 89.7613 110.969C89.9148 110.817 90.0676 110.65 90.2241 110.492C90.5679 110.142 90.9142 109.786 91.2571 109.421C91.6219 109.041 91.983 108.652 92.3338 108.251C92.6731 107.876 92.9991 107.495 93.3317 107.117C93.524 106.896 93.7167 106.691 93.9024 106.468C94.0028 106.347 94.0902 106.222 94.1842 106.098C95.1361 104.944 96.0641 103.755 96.9513 102.517C96.9908 102.464 97.0337 102.421 97.0663 102.364C97.1719 102.215 97.2673 102.053 97.3756 101.897C98.0723 100.912 98.7485 99.902 99.4012 98.8736C99.5118 98.6952 99.6393 98.5321 99.747 98.3601C99.8248 98.2378 99.8896 98.1096 99.9674 97.9874C100.694 96.8111 101.397 95.6167 102.063 94.3983C102.078 94.3656 102.099 94.3358 102.12 94.3059C102.189 94.1873 102.247 94.0561 102.309 93.9345C102.894 92.845 103.457 91.7372 104 90.621C104.085 90.4469 104.183 90.2786 104.265 90.0951C104.347 89.9275 104.407 89.758 104.489 89.5903C105.097 88.2911 105.682 86.9737 106.218 85.6426C106.224 85.6294 106.23 85.6164 106.239 85.5968L106.242 85.5901C106.833 84.1183 107.368 82.6298 107.874 81.1362C107.937 80.9601 108.009 80.7801 108.072 80.604C108.142 80.3921 108.2 80.1742 108.267 79.9689C108.422 79.4962 108.561 79.0245 108.703 78.5461C108.867 77.999 109.025 77.4493 109.183 76.8995C109.315 76.4248 109.441 75.9471 109.56 75.4664C109.631 75.1838 109.718 74.9006 109.791 74.6114C109.915 74.1018 110.03 73.5955 110.145 73.0896C110.323 72.282 110.483 71.4817 110.638 70.6719L95.8038 64.0371C95.6738 64.8426 95.5146 65.6429 95.3335 66.4571Z" fill="#CCE0E5" stroke="black" stroke-width="0.284487" stroke-miterlimit="10" stroke-linecap="round" stroke-linejoin="round"/>
<path d="M102.154 57.404L103.193 66.0182L118.028 72.653L116.985 64.0452L111.75 57.9698L97.082 51.5264L102.154 57.404Z" fill="#CCE0E5" stroke="black" stroke-width="0.284487" stroke-miterlimit="10" stroke-linecap="round" stroke-linejoin="round"/>
<path d="M103.194 66.0195L118.029 72.6541C116.528 74.5145 116.528 74.5145 115.025 76.3972L100.19 69.7624C101.694 67.8797 101.694 67.8797 103.194 66.0195Z" fill="#2E4247" stroke="black" stroke-width="0.284487" stroke-miterlimit="10" stroke-linecap="round" stroke-linejoin="round"/>
<path d="M103.194 66.0171L118.029 72.6519C116.528 74.512 116.528 74.512 115.025 76.3947L100.19 69.7599C101.694 67.8772 101.694 67.8772 103.194 66.0171Z" fill="#90A4A9" stroke="black" stroke-width="0.335641" stroke-miterlimit="9.9994" stroke-linecap="round" stroke-linejoin="round"/>
<path d="M103.26 66.0665C101.759 67.9269 101.759 67.9269 100.256 69.8096C100.238 69.8328 100.21 69.8438 100.187 69.8415C100.155 69.8431 100.132 69.8249 100.118 69.803L95.8762 64.247C95.7366 64.9854 95.5876 65.7275 95.4254 66.4637C94.2999 71.5429 92.6099 76.6383 90.4094 81.5931C85.1936 93.3384 77.626 103.223 69.1064 109.421C60.8633 115.42 52.6205 117.283 45.8874 114.67C39.6543 112.255 35.2458 106.138 33.4744 97.4579C33.4671 97.4389 33.476 97.4193 33.4817 97.4061C33.4877 97.3931 33.5 97.3828 33.5123 97.3725L38.3127 93.8784C38.3374 93.8578 38.3695 93.8565 38.3958 93.8681C38.4218 93.8797 38.4423 93.9044 38.4533 93.9329C40.0266 101.027 43.7316 106.007 48.8968 107.963C54.5422 110.093 61.4489 108.5 68.3591 103.471C75.5829 98.2118 81.993 89.8376 86.4113 79.8884C88.7749 74.5662 90.421 69.1455 91.2925 63.7729C91.3942 63.261 91.4691 62.792 91.5183 62.3275L96.8314 51.3002C96.843 51.274 96.8676 51.2537 96.8998 51.2521C96.9317 51.2507 96.958 51.2623 96.9812 51.2806L102.219 57.3496L103.283 65.9981C103.283 66.0143 103.284 66.0302 103.278 66.0432C103.272 66.0565 103.27 66.0628 103.26 66.0665Z" fill="white"/>
<path d="M33.5582 97.4487L38.3587 93.9543C41.7507 109.216 54.5601 113.626 68.4078 103.54C75.877 98.1 82.2435 89.4709 86.4871 79.915C88.8069 74.6912 90.4909 69.1852 91.3797 63.7733C91.4824 63.2774 91.5536 62.799 91.6088 62.3213L96.9099 51.3202L102.148 57.3893L103.19 65.9971C101.689 67.8572 101.689 67.8572 100.186 69.74L95.8215 64.0195C95.6689 64.8227 95.5067 65.6296 95.3286 66.4372C94.1943 71.536 92.4957 76.651 90.3185 81.5536C85.3266 92.794 77.8453 102.944 69.0461 109.348C52.5636 121.355 37.3248 115.913 33.5582 97.4487ZM33.3944 97.3759C33.3798 97.4088 33.3785 97.4473 33.3835 97.4889C35.1629 106.204 39.5919 112.345 45.851 114.772C52.6106 117.397 60.8883 115.526 69.156 109.506C77.6908 103.292 85.2644 93.394 90.4859 81.6358C92.6921 76.6677 94.3821 71.5723 95.5106 66.4867C95.6628 65.8087 95.8015 65.1248 95.9288 64.4673L100.054 69.8615C100.088 69.9083 100.141 69.9316 100.195 69.9323C100.25 69.933 100.306 69.9111 100.336 69.8615C101.837 67.9854 101.837 67.9854 103.34 66.1187C103.353 66.1084 103.359 66.0954 103.367 66.0758C103.382 66.043 103.387 66.0138 103.379 65.9789L102.337 57.371C102.329 57.3361 102.32 57.3012 102.293 57.2734L97.0555 51.2046C97.0149 51.1551 96.9528 51.1352 96.8953 51.1412C96.8378 51.1471 96.7817 51.185 96.7555 51.2438L91.4543 62.2449L91.4514 62.2515C91.4427 62.2711 91.437 62.2841 91.4347 62.3067C91.3882 62.7648 91.3133 63.2338 91.2116 63.7457C90.3308 69.122 88.694 74.539 86.3363 79.8479C81.9239 89.7842 75.5259 98.1481 68.3147 103.397C61.4358 108.409 54.5546 109.998 48.9384 107.873C43.8058 105.931 40.1148 100.973 38.5494 93.9134C38.5371 93.8532 38.4962 93.8037 38.4342 93.7839C38.3753 93.7579 38.3149 93.7702 38.2588 93.8081L33.4585 97.3025C33.4243 97.3264 33.4061 97.3497 33.3944 97.3759Z" fill="black"/>
</g>
<defs>
<clipPath id="clip0_2989_1539">
<rect width="146" height="146" fill="white"/>
</clipPath>
</defs>
</svg>
