<svg width="146" height="146" viewBox="0 0 146 146" fill="none" xmlns="http://www.w3.org/2000/svg">
<g clip-path="url(#clip0_2989_1472)">
<path d="M73 146C113.317 146 146 113.317 146 73C146 32.6832 113.317 0 73 0C32.6832 0 0 32.6832 0 73C0 113.317 32.6832 146 73 146Z" fill="#1D1D1D" fill-opacity="0.04"/>
<mask id="mask0_2989_1472" style="mask-type:luminance" maskUnits="userSpaceOnUse" x="28" y="18" width="92" height="110">
<path d="M119.21 112.945L46.3184 127.107L28.044 33.0537L100.936 18.8912L119.21 112.945Z" fill="white"/>
</mask>
<g mask="url(#mask0_2989_1472)">
<mask id="mask1_2989_1472" style="mask-type:alpha" maskUnits="userSpaceOnUse" x="57" y="25" width="47" height="30">
<path d="M103.286 44.6722C104.099 41.3053 102.433 37.6402 99.0026 34.4294C95.5768 31.2228 90.4194 28.4999 84.341 27.0324C78.2626 25.5649 72.431 25.6344 67.9194 26.9247C63.4021 28.2166 60.2469 30.7178 59.4338 34.0849L57.8691 40.6296C58.7358 43.3664 61.396 45.5509 65.092 47.3492C68.8018 49.1541 73.513 50.55 78.3792 51.7249C83.593 52.9837 88.5595 53.9692 92.6744 54.0264C96.7793 54.0832 99.9819 53.2157 101.759 50.8382L103.286 44.6722C103.286 44.6724 103.286 44.6719 103.286 44.6722Z" fill="black"/>
<path d="M103.286 44.6722C104.099 41.3053 102.433 37.6402 99.0026 34.4294C95.5768 31.2228 90.4194 28.4999 84.341 27.0324C78.2626 25.5649 72.431 25.6344 67.9194 26.9247C63.4021 28.2166 60.2469 30.7178 59.4338 34.0849L57.8691 40.6296C58.7358 43.3664 61.396 45.5509 65.092 47.3492C68.8018 49.1541 73.513 50.55 78.3792 51.7249C83.593 52.9837 88.5595 53.9692 92.6744 54.0264C96.7793 54.0832 99.9819 53.2157 101.759 50.8382L103.286 44.6722ZM103.286 44.6722C103.286 44.6719 103.286 44.6724 103.286 44.6722Z" stroke="black" stroke-width="0.1575"/>
</mask>
<g mask="url(#mask1_2989_1472)">
<path d="M103.286 44.6722C104.099 41.3053 102.433 37.6402 99.0026 34.4294C95.5768 31.2228 90.4194 28.4999 84.341 27.0324C78.2626 25.5649 72.431 25.6344 67.9194 26.9247C63.4021 28.2166 60.2469 30.7178 59.4338 34.0849L57.8691 40.6296C58.7358 43.3664 61.396 45.5509 65.092 47.3492C68.8018 49.1541 73.513 50.55 78.3792 51.7249C83.593 52.9837 88.5595 53.9692 92.6744 54.0264C96.7793 54.0832 99.9819 53.2157 101.759 50.8382L103.286 44.6722C103.286 44.6724 103.286 44.6719 103.286 44.6722Z" fill="black"/>
<path d="M103.286 44.6722C104.099 41.3053 102.433 37.6402 99.0026 34.4294C95.5768 31.2228 90.4194 28.4999 84.341 27.0324C78.2626 25.5649 72.431 25.6344 67.9194 26.9247C63.4021 28.2166 60.2469 30.7178 59.4338 34.0849L57.8691 40.6296C58.7358 43.3664 61.396 45.5509 65.092 47.3492C68.8018 49.1541 73.513 50.55 78.3792 51.7249C83.593 52.9837 88.5595 53.9692 92.6744 54.0264C96.7793 54.0832 99.9819 53.2157 101.759 50.8382L103.286 44.6722ZM103.286 44.6722C103.286 44.6719 103.286 44.6724 103.286 44.6722Z" stroke="black" stroke-width="0.1575"/>
<path d="M100.346 34.3687L97.5654 45.2405L98.3773 44.7089L101.115 34.0566L100.346 34.3687Z" fill="#B5A9A9"/>
<path d="M96.3964 31.5726L93.6162 42.4443L96.7732 41.0578L99.5107 30.4053L96.3964 31.5726Z" fill="#B5A9A9"/>
</g>
<path d="M82.7318 33.6766C94.9378 36.6236 103.479 44.6184 101.81 51.5335C100.14 58.4486 88.8917 61.6653 76.6858 58.7183C64.4798 55.7713 55.9384 47.7765 57.608 40.8615C59.2776 33.9464 70.5259 30.7296 82.7318 33.6766Z" fill="#CCE0E5" stroke="black" stroke-width="0.112602" stroke-linecap="round" stroke-linejoin="round"/>
<mask id="mask2_2989_1472" style="mask-type:alpha" maskUnits="userSpaceOnUse" x="44" y="32" width="59" height="81">
<path d="M89.9109 91.0479C90.69 95.0568 90.1333 101.111 88.867 104.713C87.1976 111.628 75.9492 114.845 63.7432 111.898C51.5373 108.95 42.9959 100.956 44.6655 94.0407C46.0657 84.9463 51.7739 75.6855 63.4997 73.4072C65.0179 73.1123 66.5297 72.9756 68.018 72.9854C68.7361 72.9905 69.4333 72.6186 69.59 71.918C69.7435 71.2325 69.2921 70.5872 68.6615 70.2776C62.5886 67.2962 57.9456 61.6378 56.5638 54.5258C55.7848 50.5172 56.3414 44.4632 57.6077 40.8611C59.2774 33.9459 70.5255 30.7292 82.7316 33.6761C94.9374 36.6232 103.479 44.6179 101.809 51.533C100.409 60.6274 94.7009 69.8882 82.975 72.1665C81.8351 72.388 80.6985 72.5203 79.573 72.5682C78.7577 72.6029 77.9638 73.0044 77.7514 73.7925C77.5294 74.6156 78.0696 75.4061 78.8151 75.8194C84.3935 78.9128 88.6063 84.3324 89.9109 91.0479Z" fill="#D9D9D9"/>
</mask>
<g mask="url(#mask2_2989_1472)">
<path d="M77.3327 93.8648C77.9017 92.0204 79.3517 81.9434 74.7709 76.945C73.3013 73.0053 74.8218 71.5594 77.2445 69.256C77.3186 69.1858 77.3934 69.1146 77.4689 69.0425C77.5228 68.9912 77.578 68.9385 77.6346 68.8849C79.5045 67.1053 82.7188 64.0459 85.0541 59.8068C88.9865 59.868 92.5551 59.2498 95.3934 58.0571C95.2962 58.2884 95.1984 58.5054 95.0996 58.7064C92.1428 64.7364 87.1558 67.7362 82.1936 70.721C81.4563 71.1645 80.7199 71.6075 79.9906 72.0601C77.4197 73.7692 77.7856 76.055 82.8347 83.6128C86.846 89.6169 86.0423 95.2741 85.5788 98.5368C85.5042 99.0615 85.4385 99.5243 85.4029 99.9167L77.3327 93.8648Z" fill="#25D17F"/>
<path d="M99.0527 42.7715C97.196 40.5731 94.5458 38.5311 91.3281 36.8567C91.7565 34.9619 92.132 33.2874 92.4122 32.0298L99.7571 38.7065C99.6866 39.1117 99.61 39.5572 99.5276 40.0361C99.3857 40.8607 99.2267 41.7846 99.0527 42.7715Z" fill="#25D17F"/>
<path fill-rule="evenodd" clip-rule="evenodd" d="M91.3281 36.8564C90.0773 42.3894 88.3764 49.8 87.2836 54.193C86.7729 56.2468 85.9829 58.1202 85.0537 59.8067C88.9861 59.8679 92.5547 59.2496 95.393 58.057C96.8585 54.5731 98.1574 47.8418 99.0524 42.7715C97.1957 40.5731 94.5455 38.5309 91.3281 36.8564Z" fill="white"/>
</g>
<path d="M87.7028 104.432L87.717 104.373L87.737 104.316C88.9372 100.902 89.471 95.0637 88.7353 91.2764C87.5012 84.9251 83.5183 79.7971 78.2343 76.8671C77.2298 76.31 76.1725 75.0469 76.595 73.4808C76.9994 71.9799 78.4382 71.4178 79.522 71.3718C80.5883 71.3264 81.6653 71.2011 82.7466 70.991C93.8344 68.8366 99.2776 60.1054 100.626 51.3508L100.633 51.3011L100.645 51.252C101.334 48.3977 99.9606 45.0849 96.6553 41.9911C93.3799 38.9253 88.3899 36.2745 82.4505 34.8405C76.5108 33.4063 70.861 33.4884 66.5476 34.7219C62.1948 35.9668 59.4609 38.2877 58.7718 41.1422L58.7576 41.2011L58.7376 41.2583C57.5374 44.6722 57.0036 50.5102 57.7393 54.2975C59.0462 61.0233 63.436 66.3781 69.1891 69.2025C70.131 69.6649 71.0732 70.7754 70.7588 72.1798C70.4342 73.6295 69.0586 74.1902 68.0099 74.1832C66.6006 74.1738 65.1679 74.3032 63.728 74.5829C52.6402 76.7373 47.1969 85.4685 45.8492 94.223L45.8414 94.2728L45.8296 94.3218C45.1404 97.1764 46.5139 100.489 49.8195 103.583C53.0947 106.649 58.0847 109.299 64.0241 110.733C69.9638 112.168 75.6136 112.085 79.9269 110.852C84.2798 109.607 87.0137 107.286 87.7028 104.432Z" stroke="#25D17F" stroke-width="1.05"/>
<path d="M88.6923 104.671L88.6973 104.654C89.9539 101.08 90.5068 95.0581 89.7344 91.0826C88.4403 84.4216 84.2621 79.046 78.7278 75.9771C77.9435 75.542 77.3258 74.6806 77.5776 73.746C77.819 72.8513 78.7096 72.4256 79.5653 72.3891C80.682 72.3417 81.8093 72.2105 82.9406 71.9906C94.5707 69.731 100.239 60.5497 101.632 51.5061L101.635 51.4913C102.448 48.1241 100.781 44.4591 97.3508 41.2482C93.9251 38.0415 88.7676 35.3188 82.6892 33.8513C76.6108 32.3837 70.7793 32.4533 66.2676 33.7434C61.7503 35.0355 58.5951 37.5366 57.7821 40.9035L57.7771 40.9211C56.5205 44.4949 55.9676 50.5165 56.74 54.492C58.1106 61.5461 62.7157 67.1589 68.7405 70.1168C69.4178 70.4491 69.9427 71.1643 69.7653 71.9577C69.5832 72.7708 68.7843 73.1709 68.0167 73.1657C66.5403 73.1556 65.0403 73.2914 63.5338 73.584C51.9037 75.8436 46.2353 85.025 44.8428 94.0685L44.8399 94.0834C44.0271 97.4505 45.6933 101.116 49.1236 104.326C52.5493 107.533 57.7068 110.256 63.7852 111.723C69.8636 113.191 75.6951 113.121 80.2068 111.831C84.7241 110.539 87.8793 108.038 88.6923 104.671Z" stroke="black" stroke-width="0.1575"/>
<mask id="mask3_2989_1472" style="mask-type:alpha" maskUnits="userSpaceOnUse" x="42" y="85" width="47" height="35">
<path d="M44.712 94.7466L44.7086 94.7639L43.1886 100.901C43.1886 100.902 43.1889 100.901 43.1886 100.901C42.376 104.268 44.042 107.934 47.4724 111.144C50.8981 114.351 56.0556 117.074 62.134 118.541C68.2123 120.009 74.0439 119.939 78.5555 118.649C83.0729 117.357 86.2281 114.856 87.0409 111.489L88.5479 105.186L88.5515 105.174C88.6042 105.008 88.6512 104.84 88.6923 104.67C89.5053 101.303 87.8388 97.6381 84.4085 94.4274C80.9828 91.2207 75.8253 88.498 69.7469 87.0305C63.6685 85.5629 57.837 85.6325 53.3254 86.9226C48.808 88.2144 45.6528 90.7158 44.8398 94.0827C44.7866 94.3029 44.7442 94.5244 44.712 94.7466Z" fill="black"/>
<path d="M43.1886 100.901L44.7086 94.7639L44.712 94.7466C44.7442 94.5244 44.7866 94.3029 44.8398 94.0827C45.6528 90.7158 48.808 88.2144 53.3254 86.9226C57.837 85.6325 63.6685 85.5629 69.7469 87.0305C75.8253 88.498 80.9828 91.2207 84.4085 94.4274C87.8388 97.6381 89.5053 101.303 88.6923 104.67C88.6512 104.84 88.6042 105.008 88.5515 105.174L88.5479 105.186L87.0409 111.489C86.2281 114.856 83.0729 117.357 78.5555 118.649C74.0439 119.939 68.2123 120.009 62.134 118.541C56.0556 117.074 50.8981 114.351 47.4724 111.144C44.042 107.934 42.376 104.268 43.1886 100.901ZM43.1886 100.901C43.1886 100.902 43.1889 100.901 43.1886 100.901Z" stroke="black" stroke-width="0.1575"/>
</mask>
<g mask="url(#mask3_2989_1472)">
<path d="M44.712 94.7466L44.7086 94.7639L43.1886 100.901C43.1886 100.902 43.1889 100.901 43.1886 100.901C42.376 104.268 44.042 107.934 47.4724 111.144C50.8981 114.351 56.0556 117.074 62.134 118.541C68.2123 120.009 74.0439 119.939 78.5555 118.649C83.0729 117.357 86.2281 114.856 87.0409 111.489L88.5479 105.186L88.5515 105.174C88.6042 105.008 88.6512 104.84 88.6923 104.67C89.5053 101.303 87.8388 97.6381 84.4085 94.4274C80.9828 91.2207 75.8253 88.498 69.7469 87.0305C63.6685 85.5629 57.837 85.6325 53.3254 86.9226C48.808 88.2144 45.6528 90.7158 44.8398 94.0827C44.7866 94.3029 44.7442 94.5244 44.712 94.7466Z" fill="black"/>
<path d="M43.1886 100.901L44.7086 94.7639L44.712 94.7466C44.7442 94.5244 44.7866 94.3029 44.8398 94.0827C45.6528 90.7158 48.808 88.2144 53.3254 86.9226C57.837 85.6325 63.6685 85.5629 69.7469 87.0305C75.8253 88.498 80.9828 91.2207 84.4085 94.4274C87.8388 97.6381 89.5053 101.303 88.6923 104.67C88.6512 104.84 88.6042 105.008 88.5515 105.174L88.5479 105.186L87.0409 111.489C86.2281 114.856 83.0729 117.357 78.5555 118.649C74.0439 119.939 68.2123 120.009 62.134 118.541C56.0556 117.074 50.8981 114.351 47.4724 111.144C44.042 107.934 42.376 104.268 43.1886 100.901ZM43.1886 100.901C43.1886 100.902 43.1889 100.901 43.1886 100.901Z" stroke="black" stroke-width="0.1575"/>
<path d="M85.8107 94.0641L83.0303 104.936L84.6087 103.933L87.3464 93.2803L85.8107 94.0641Z" fill="#B5A9A9"/>
<path d="M78.8056 90.2412L75.584 103.573L81.7568 101.545L84.4943 90.893L78.8056 90.2412Z" fill="#B5A9A9"/>
</g>
<path d="M62.0924 118.716C49.8864 115.769 41.345 107.775 43.0146 100.86C44.6842 93.9445 55.9325 90.7277 68.1384 93.6747C80.3444 96.6217 88.8858 104.617 87.2162 111.532C85.5467 118.447 74.2983 121.663 62.0924 118.716Z" fill="#CCE0E5" stroke="black" stroke-width="0.112602" stroke-linecap="round" stroke-linejoin="round"/>
<mask id="mask4_2989_1472" style="mask-type:alpha" maskUnits="userSpaceOnUse" x="49" y="97" width="32" height="18">
<path d="M50.0384 102.555C49.5345 104.643 50.7013 106.971 53.0973 109.054C55.4856 111.13 59.0566 112.926 63.2462 113.937C67.4357 114.949 71.4327 114.981 74.5053 114.222C77.5877 113.462 79.6883 111.923 80.1922 109.835C80.6963 107.748 79.5293 105.42 77.1335 103.337C74.7453 101.26 71.174 99.4646 66.9847 98.4531C62.7952 97.4416 58.7982 97.4099 55.7256 98.1679C52.6431 98.9283 50.5426 100.467 50.0384 102.555Z" fill="white" stroke="black" stroke-width="0.1575"/>
</mask>
<g mask="url(#mask4_2989_1472)">
<path d="M50.0384 102.555C49.5345 104.643 50.7013 106.971 53.0973 109.054C55.4856 111.13 59.0566 112.926 63.2462 113.937C67.4357 114.949 71.4327 114.981 74.5053 114.222C77.5877 113.462 79.6883 111.923 80.1922 109.835C80.6963 107.748 79.5293 105.42 77.1335 103.337C74.7453 101.26 71.174 99.4646 66.9847 98.4531C62.7952 97.4416 58.7982 97.4099 55.7256 98.1679C52.6431 98.9283 50.5426 100.467 50.0384 102.555Z" fill="black" stroke="black" stroke-width="0.1575"/>
<path d="M64.0155 108.6C55.5923 106.567 49.6197 101.374 50.6754 97.0013C51.731 92.629 59.4151 90.7332 67.8383 92.7669C76.2615 94.8006 82.2341 99.9936 81.1784 104.366C80.1228 108.738 72.4387 110.634 64.0155 108.6Z" fill="white" stroke="black" stroke-width="0.112602" stroke-linecap="round" stroke-linejoin="round"/>
<path d="M49.5647 98.6836C48.8974 101.448 50.8999 104.524 54.5271 107.003" stroke="#66DD8C" stroke-width="0.1575" stroke-linecap="round"/>
<path d="M57.2363 108.588C59.1216 109.533 61.2719 110.325 63.6003 110.887C65.5031 111.346 67.3701 111.615 69.1399 111.708" stroke="#66DD8C" stroke-width="0.1575" stroke-linecap="round"/>
<path d="M81.6571 106.432C81.1194 108.659 78.9472 110.275 75.8438 111.107" stroke="#66DD8C" stroke-width="0.1575" stroke-linecap="round"/>
<path d="M50.0384 102.555C49.5345 104.643 50.7013 106.971 53.0973 109.054C55.4856 111.13 59.0566 112.926 63.2462 113.937C67.4357 114.949 71.4327 114.981 74.5053 114.222C77.5877 113.462 79.6883 111.923 80.1922 109.835C80.6963 107.748 79.5293 105.42 77.1335 103.337C74.7453 101.26 71.174 99.4646 66.9847 98.4531C62.7952 97.4416 58.7982 97.4099 55.7256 98.1679C52.6431 98.9283 50.5426 100.467 50.0384 102.555Z" stroke="black" stroke-width="0.1575"/>
</g>
<path d="M80.0027 51.0979C82.8145 51.9487 84.8718 53.3727 84.5977 54.2785C84.3236 55.1842 81.822 55.2288 79.0102 54.3779C76.1984 53.5271 74.1411 52.1031 74.4152 51.1974C74.6893 50.2916 77.1909 50.2471 80.0027 51.0979Z" fill="black"/>
<path d="M80.823 67.9481L81.5411 67.5162L81.5386 67.5165L82.1735 67.1348C82.428 66.9815 82.6062 66.6854 82.687 66.2383C82.7675 65.7914 82.7456 65.2161 82.6194 64.5465C82.3676 63.2088 81.7074 61.5341 80.6938 59.8444C79.6805 58.1558 78.5132 56.7859 77.451 55.9346C76.9193 55.5084 76.4217 55.2185 75.9894 55.0793C75.5569 54.9402 75.212 54.9582 74.9572 55.1108L73.6044 55.9241L73.6623 56.021L73.707 56.0954L73.6767 56.1766C73.4495 56.782 73.4944 57.7607 73.8216 58.9611C74.1464 60.1528 74.7414 61.5323 75.5752 62.9204C76.409 64.3088 77.3468 65.4825 78.2454 66.3295C79.1508 67.1829 79.9928 67.6825 80.6341 67.7658L80.7201 67.777L80.7648 67.8514L80.823 67.9481Z" fill="#25D17F" stroke="black" stroke-width="0.1575" stroke-miterlimit="10"/>
<path d="M74.0011 60.093C73.44 58.5368 73.2741 57.1902 73.5741 56.3958L73.4295 56.1551L74.8758 55.2858C75.6888 54.7976 77.1189 55.5732 78.5661 57.1272L74.0011 60.093Z" fill="black" stroke="black" stroke-width="0.1575" stroke-miterlimit="10"/>
<path d="M79.1667 60.7513C81.1336 64.0283 81.745 67.275 80.5323 68.003C79.3193 68.7309 76.7417 66.6646 74.7749 63.3873C72.8077 60.1103 72.1966 56.8636 73.4093 56.1357C74.622 55.4077 77.1998 57.4743 79.1667 60.7513Z" fill="#B9FFB9"/>
<path d="M80.5238 67.9896C79.5796 68.5558 77.8134 67.432 76.1486 65.3643L75.2949 56.4346C76.507 57.1659 77.9485 58.7224 79.1594 60.7372C81.1251 64.0149 81.7374 67.2598 80.5238 67.9896Z" fill="white"/>
<path d="M79.1667 60.7513C81.1336 64.0283 81.745 67.275 80.5323 68.003C79.3193 68.7309 76.7417 66.6646 74.7749 63.3873C72.8077 60.1103 72.1966 56.8636 73.4093 56.1357C74.622 55.4077 77.1998 57.4743 79.1667 60.7513Z" stroke="black" stroke-width="0.1575" stroke-miterlimit="10"/>
<path d="M73.9219 40.765C77.6081 41.8804 80.3051 43.7472 79.9458 44.9346C79.5865 46.122 76.307 46.1804 72.6208 45.065C68.9346 43.9496 66.2376 42.0828 66.5969 40.8954C66.9561 39.708 70.2357 39.6496 73.9219 40.765Z" fill="black"/>
<path d="M65.9316 46.2979L65.9494 45.4602L65.9661 44.7217C65.9725 44.4247 66.1408 44.1229 66.4887 43.8307C66.8364 43.5387 67.3465 43.2718 67.9902 43.0482C69.2762 42.602 71.0576 42.3424 73.0275 42.3819C74.9964 42.422 76.7653 42.7539 78.0321 43.2524C78.666 43.502 79.1649 43.7896 79.5005 44.0955C79.8363 44.4017 79.9924 44.7101 79.9864 45.0069L79.9531 46.5851L79.8402 46.5828L79.7535 46.581L79.6981 46.6478C79.2856 47.146 78.414 47.5936 77.2097 47.9061C76.0143 48.2164 74.5215 48.3861 72.9027 48.3526C71.2835 48.319 69.7988 48.0886 68.6171 47.73C67.4268 47.3687 66.5747 46.8862 66.1837 46.3713L66.1312 46.302L66.0443 46.3001L65.9316 46.2979Z" fill="#66DD8C" stroke="black" stroke-width="0.1575" stroke-miterlimit="10"/>
<path d="M76.1387 48.3137C77.7679 48.0272 79.019 47.5018 79.5592 46.8467L79.8398 46.8524L79.8754 45.1654C79.8947 44.2173 78.5109 43.3618 76.4432 42.8784L76.1387 48.3137Z" fill="black" stroke="black" stroke-width="0.1575" stroke-miterlimit="10"/>
<path d="M72.9998 44.1583C69.1785 44.0802 66.0575 45.1636 66.0285 46.5778C65.9998 47.9919 69.0742 49.2016 72.8955 49.2794C76.7166 49.3572 79.8378 48.2741 79.8666 46.8597C79.8956 45.4456 76.8211 44.2361 72.9998 44.1583Z" fill="#B9FFB9"/>
<path d="M66.0441 46.577C66.0225 47.6775 67.8753 48.6516 70.4971 49.0684L78.6699 45.3705C77.4328 44.6825 75.3658 44.2055 73.0156 44.1562C69.1941 44.0795 66.0742 45.1611 66.0441 46.577Z" fill="white"/>
<path d="M72.9998 44.1583C69.1785 44.0802 66.0575 45.1636 66.0285 46.5778C65.9998 47.9919 69.0742 49.2016 72.8955 49.2794C76.7166 49.3572 79.8378 48.2741 79.8666 46.8597C79.8956 45.4456 76.8211 44.2361 72.9998 44.1583Z" stroke="black" stroke-width="0.1575" stroke-miterlimit="10"/>
<path d="M59.309 82.4912L59.9045 83.3337L60.0445 83.2347C60.8386 83.4674 62.4319 82.9185 63.9963 81.8119C65.5608 80.7053 66.6072 79.3842 66.6528 78.5579L66.7929 78.4589L66.1975 77.6164C65.6986 76.9125 63.7527 77.4333 61.8517 78.779C59.9503 80.126 58.8108 81.7861 59.309 82.4912Z" fill="#B9FFB9"/>
<path fill-rule="evenodd" clip-rule="evenodd" d="M59.3095 82.4905C59.2222 82.3661 59.1854 82.2124 59.1948 82.0358C59.2381 81.2098 60.2861 79.888 61.8518 78.7789C63.7527 77.4332 65.6986 76.9126 66.1975 77.6163L66.7927 78.4584L66.6529 78.558C66.607 79.3843 65.5608 80.7054 63.9964 81.812C62.5838 82.811 61.148 83.3555 60.2978 83.2807C60.2065 83.2725 60.1219 83.2572 60.0448 83.2346L59.9047 83.3336L59.3095 82.4905ZM59.9969 82.8546L60.1433 82.8974C60.4303 82.9816 60.9386 82.9346 61.6138 82.6946C62.272 82.4606 63.033 82.063 63.7933 81.525C64.5537 80.9874 65.1815 80.4018 65.6211 79.8588C66.0718 79.3017 66.2856 78.8377 66.302 78.5387L66.3107 78.3851L65.911 77.8196C65.8661 77.7564 65.7646 77.6846 65.5394 77.6613C65.3147 77.6383 65.0111 77.6695 64.6413 77.7685C63.9044 77.9656 62.9803 78.4104 62.0548 79.0656C61.1288 79.7217 60.4018 80.4453 59.9711 81.0747C59.7548 81.3905 59.6243 81.6665 59.5714 81.8859C59.5185 82.1061 59.5525 82.2258 59.5974 82.2893L59.9969 82.8546Z" fill="#25D17F"/>
<path d="M65.4488 80.5799C66.1177 79.8766 66.5249 79.1924 66.5513 78.6949L66.6857 78.5998L66.1142 77.7913C65.7928 77.3373 64.8415 77.416 63.6973 77.9088L65.4488 80.5799Z" fill="#25D17F"/>
<path fill-rule="evenodd" clip-rule="evenodd" d="M65.3018 80.6759L63.4355 77.8301L63.6276 77.7472C64.2105 77.4963 64.7552 77.3455 65.204 77.3195C65.644 77.2937 66.0432 77.3868 66.2575 77.6895L66.9304 78.6417L66.7187 78.7914C66.6859 79.0571 66.5684 79.3491 66.3923 79.6489C66.1952 79.9845 65.9171 80.3419 65.576 80.7006L65.4487 80.5796L65.3018 80.6759ZM65.4722 80.2952C65.7296 80.008 65.9376 79.729 66.0893 79.471C66.2711 79.1616 66.3647 78.8945 66.3756 78.6853L66.3802 78.6004L66.4409 78.5576L65.9707 77.8926C65.8637 77.7415 65.6265 77.6466 65.2245 77.6701C64.8771 77.6904 64.4439 77.7981 63.9605 77.9897L65.4722 80.2952Z" fill="#25D17F"/>
<path d="M62.5184 79.7122C60.6881 81.0077 59.5931 82.6071 60.0726 83.2844C60.5519 83.9619 62.4244 83.4607 64.2549 82.1652C66.0851 80.8697 67.1801 79.2703 66.7006 78.5928C66.2211 77.9155 64.3486 78.4167 62.5184 79.7122Z" fill="#B9FFB9"/>
<path d="M60.0805 83.2789C60.4539 83.8059 61.6678 83.6195 63.0502 82.9021L65.6175 78.3076C64.7938 78.4142 63.652 78.9099 62.526 79.706C60.6959 81.0022 59.6009 82.6002 60.0805 83.2789Z" fill="white"/>
<path fill-rule="evenodd" clip-rule="evenodd" d="M66.6072 79.2133C66.6645 78.9758 66.6371 78.807 66.5573 78.6943C66.4774 78.5814 66.3273 78.4995 66.0841 78.4744C65.8414 78.4493 65.5282 78.4842 65.1614 78.5823C64.4295 78.7783 63.5225 79.2165 62.6198 79.8555C61.7171 80.4945 61.0024 81.2042 60.5742 81.8295C60.3598 82.1427 60.2229 82.4265 60.1659 82.6637C60.1086 82.9014 60.136 83.07 60.2158 83.1829C60.2957 83.2958 60.4458 83.3777 60.689 83.4028C60.9317 83.4277 61.2449 83.393 61.6117 83.2949C62.3436 83.099 63.2506 82.6607 64.1533 82.0218C65.056 81.3828 65.7707 80.6731 66.1989 80.0478C66.4133 79.7346 66.5502 79.4506 66.6072 79.2133ZM66.4888 80.2463C66.0317 80.914 65.2839 81.6517 64.3563 82.3085C63.4285 82.9651 62.4841 83.4252 61.7025 83.6344C61.3124 83.7386 60.9534 83.7831 60.6529 83.7523C60.3529 83.7213 60.089 83.6118 59.9291 83.386C59.7692 83.1601 59.7537 82.8747 59.8242 82.5816C59.8949 82.288 60.0562 81.9641 60.2843 81.6308C60.7414 80.9633 61.4892 80.2253 62.4168 79.5687C63.3446 78.9122 64.289 78.4521 65.0706 78.2429C65.4607 78.1384 65.8197 78.0939 66.1202 78.1249C66.4202 78.156 66.6841 78.2655 66.844 78.4913C67.0037 78.7172 67.0194 79.0023 66.949 79.2957C66.8782 79.5893 66.7169 79.913 66.4888 80.2463Z" fill="#25D17F"/>
<path d="M77.5895 81.7332L76.8198 82.2951L76.7265 82.1671C75.9629 82.1365 74.7304 81.1864 73.6874 79.7565C72.6446 78.3266 72.1183 76.8621 72.322 76.1254L72.2285 75.9972L72.9982 75.4356C73.6424 74.9666 75.1919 75.9961 76.4586 77.7344C77.7259 79.4741 78.2335 81.2631 77.5895 81.7332Z" fill="#B9FFB9"/>
<path fill-rule="evenodd" clip-rule="evenodd" d="M77.5897 81.7327C77.7029 81.6494 77.7802 81.5255 77.8243 81.3683C78.0298 80.6326 77.5024 79.1669 76.4592 77.7345C75.1924 75.9962 73.6427 74.9667 72.9987 75.4355L72.2295 75.9969L72.3223 76.1253C72.1188 76.862 72.6451 78.3268 73.6879 79.7566C74.6294 81.0476 75.7257 81.9476 76.4918 82.1326C76.5741 82.1524 76.6526 82.164 76.7267 82.167L76.82 82.2948L77.5897 81.7327ZM76.8807 81.8483L76.7398 81.8428C76.4637 81.8319 76.0328 81.6407 75.5127 81.2315C75.0058 80.8327 74.4569 80.2603 73.95 79.5655C73.4433 78.8706 73.0665 78.173 72.842 77.568C72.6116 76.9477 72.5614 76.4785 72.6351 76.2118L72.673 76.0749L73.1897 75.6978C73.2474 75.6559 73.3573 75.6228 73.5615 75.6691C73.7648 75.7149 74.0214 75.832 74.3159 76.0275C74.9027 76.4173 75.5802 77.0794 76.197 77.9257C76.8139 78.7727 77.2366 79.6205 77.4282 80.2982C77.5243 80.6386 77.5571 80.9185 77.5386 81.1261C77.5202 81.3346 77.4552 81.429 77.3972 81.4715L76.8807 81.8483Z" fill="#25D17F"/>
<path d="M72.7797 78.2499C72.4019 77.4373 72.2473 76.7185 72.3707 76.2753L72.2812 76.1525L73.0197 75.6132C73.4349 75.3108 74.2443 75.6602 75.1002 76.4288L72.7797 78.2499Z" fill="#25D17F"/>
<path fill-rule="evenodd" clip-rule="evenodd" d="M72.88 78.3768L75.3525 76.4364L75.2087 76.3072C74.7726 75.9158 74.3403 75.6233 73.9554 75.468C73.5777 75.3158 73.201 75.2795 72.9241 75.4814L72.0547 76.1161L72.1957 76.3095C72.1459 76.5518 72.1626 76.8422 72.2285 77.1566C72.302 77.5081 72.44 77.903 72.6328 78.3177L72.7799 78.2493L72.88 78.3768ZM72.8431 77.9933C72.7026 77.6662 72.6026 77.3605 72.5461 77.0899C72.4781 76.7658 72.4751 76.5043 72.5271 76.318L72.5481 76.2425L72.5077 76.187L73.1152 75.7436C73.2535 75.6429 73.4891 75.6299 73.8341 75.7689C74.1322 75.8891 74.4794 76.1113 74.846 76.4215L72.8431 77.9933Z" fill="#25D17F"/>
<path d="M75.6001 78.3551C76.8199 80.0289 77.3065 81.7514 76.6871 82.2029C76.0678 82.6544 74.577 81.6636 73.357 79.9901C72.1372 78.3163 71.6506 76.5938 72.2699 76.1423C72.8893 75.6908 74.3803 76.6816 75.6001 78.3551Z" fill="#B9FFB9"/>
<path d="M76.6819 82.1954C76.1996 82.5465 75.1922 82.0254 74.1937 80.9898L73.3018 76.2119C73.9912 76.5482 74.8443 77.3185 75.5951 78.3474C76.8144 80.0214 77.3015 81.743 76.6819 82.1954Z" fill="white"/>
<path fill-rule="evenodd" clip-rule="evenodd" d="M72.1676 76.713C72.1877 76.4883 72.2613 76.3487 72.3644 76.2734C72.4678 76.1981 72.6231 76.1708 72.8433 76.2205C73.0632 76.2702 73.3271 76.3929 73.6191 76.5871C74.202 76.9744 74.8665 77.6255 75.4681 78.4509C76.0697 79.2762 76.486 80.1082 76.6762 80.7816C76.7716 81.119 76.8076 81.4078 76.7876 81.6323C76.7675 81.857 76.694 81.9966 76.5907 82.0719C76.4876 82.1472 76.3322 82.1745 76.1119 82.1248C75.8922 82.0751 75.6282 81.9524 75.3362 81.7582C74.7534 81.3709 74.0888 80.7198 73.4873 79.8944C72.8857 79.0691 72.4694 78.2371 72.2789 77.5637C72.1838 77.2265 72.1475 76.9375 72.1676 76.713ZM71.9668 77.652C72.1699 78.3713 72.6069 79.2374 73.2252 80.0856C73.8432 80.9338 74.5341 81.615 75.1567 82.0285C75.4672 82.235 75.7683 82.3799 76.0405 82.4412C76.3122 82.5026 76.5754 82.4846 76.7819 82.334C76.9883 82.1837 77.0862 81.9384 77.1108 81.661C77.1357 81.3832 77.0898 81.0522 76.9885 80.6933C76.7853 79.9743 76.3484 79.1079 75.7302 78.2597C75.112 77.4115 74.421 76.7303 73.7987 76.3168C73.488 76.1103 73.1868 75.9654 72.9149 75.9041C72.6432 75.8427 72.38 75.8607 72.1735 76.0113C71.9668 76.1616 71.8692 76.4069 71.8446 76.6843C71.8197 76.9621 71.8653 77.2931 71.9668 77.652Z" fill="#25D17F"/>
</g>
</g>
<defs>
<clipPath id="clip0_2989_1472">
<rect width="146" height="146" fill="white"/>
</clipPath>
</defs>
</svg>
